<svg xmlns="http://www.w3.org/2000/svg" xmlns:xlink="http://www.w3.org/1999/xlink" version="1.1" class="marks" width="1768" height="894" viewBox="0 0 884 447"><rect width="884" height="447" fill="white"/><g fill="none" stroke-miterlimit="10" transform="translate(42,10)"><g class="mark-group role-frame root" role="graphics-object" aria-roledescription="group mark container"><g transform="translate(0,0)"><path class="background" aria-hidden="true" d="M0.5,0.5h800v400h-800Z" stroke="#ddd"/><g><g class="mark-group role-axis" aria-hidden="true"><g transform="translate(0.5,400.5)"><path class="background" aria-hidden="true" d="M0,0h0v0h0Z" pointer-events="none"/><g><g class="mark-rule role-axis-grid" pointer-events="none"><line transform="translate(0,-400)" x2="0" y2="400" stroke="#ddd" stroke-width="1" opacity="1"/><line transform="translate(63,-400)" x2="0" y2="400" stroke="#ddd" stroke-width="1" opacity="1"/><line transform="translate(126,-400)" x2="0" y2="400" stroke="#ddd" stroke-width="1" opacity="1"/><line transform="translate(190,-400)" x2="0" y2="400" stroke="#ddd" stroke-width="1" opacity="1"/><line transform="translate(254,-400)" x2="0" y2="400" stroke="#ddd" stroke-width="1" opacity="1"/><line transform="translate(316,-400)" x2="0" y2="400" stroke="#ddd" stroke-width="1" opacity="1"/><line transform="translate(379,-400)" x2="0" y2="400" stroke="#ddd" stroke-width="1" opacity="1"/><line transform="translate(443,-400)" x2="0" y2="400" stroke="#ddd" stroke-width="1" opacity="1"/><line transform="translate(507,-400)" x2="0" y2="400" stroke="#ddd" stroke-width="1" opacity="1"/><line transform="translate(569,-400)" x2="0" y2="400" stroke="#ddd" stroke-width="1" opacity="1"/><line transform="translate(632,-400)" x2="0" y2="400" stroke="#ddd" stroke-width="1" opacity="1"/><line transform="translate(696,-400)" x2="0" y2="400" stroke="#ddd" stroke-width="1" opacity="1"/><line transform="translate(760,-400)" x2="0" y2="400" stroke="#ddd" stroke-width="1" opacity="1"/></g></g><path class="foreground" aria-hidden="true" d="" pointer-events="none" display="none"/></g></g><g class="mark-group role-axis" role="graphics-symbol" aria-roledescription="axis" aria-label="X-axis titled 'Timepoint' for a time scale with values from January 01, 2020 to February 28, 2023"><g transform="translate(0.5,400.5)"><path class="background" aria-hidden="true" d="M0,0h0v0h0Z" pointer-events="none"/><g><g class="mark-rule role-axis-tick" pointer-events="none"><line transform="translate(0,0)" x2="0" y2="5" stroke="#888" stroke-width="1" opacity="1"/><line transform="translate(63,0)" x2="0" y2="5" stroke="#888" stroke-width="1" opacity="1"/><line transform="translate(126,0)" x2="0" y2="5" stroke="#888" stroke-width="1" opacity="1"/><line transform="translate(190,0)" x2="0" y2="5" stroke="#888" stroke-width="1" opacity="1"/><line transform="translate(254,0)" x2="0" y2="5" stroke="#888" stroke-width="1" opacity="1"/><line transform="translate(316,0)" x2="0" y2="5" stroke="#888" stroke-width="1" opacity="1"/><line transform="translate(379,0)" x2="0" y2="5" stroke="#888" stroke-width="1" opacity="1"/><line transform="translate(443,0)" x2="0" y2="5" stroke="#888" stroke-width="1" opacity="1"/><line transform="translate(507,0)" x2="0" y2="5" stroke="#888" stroke-width="1" opacity="1"/><line transform="translate(569,0)" x2="0" y2="5" stroke="#888" stroke-width="1" opacity="1"/><line transform="translate(632,0)" x2="0" y2="5" stroke="#888" stroke-width="1" opacity="1"/><line transform="translate(696,0)" x2="0" y2="5" stroke="#888" stroke-width="1" opacity="1"/><line transform="translate(760,0)" x2="0" y2="5" stroke="#888" stroke-width="1" opacity="1"/></g><g class="mark-text role-axis-label" pointer-events="none"><text text-anchor="start" transform="translate(0,15)" font-family="sans-serif" font-size="10px" fill="#000" opacity="1">Jan 01, 2020</text><text text-anchor="middle" transform="translate(63.05603697284806,15)" font-family="sans-serif" font-size="10px" fill="#000" opacity="0">Apr 01, 2020</text><text text-anchor="middle" transform="translate(126.14095898324669,15)" font-family="sans-serif" font-size="10px" fill="#000" opacity="1">Jul 01, 2020</text><text text-anchor="middle" transform="translate(189.91912189485848,15)" font-family="sans-serif" font-size="10px" fill="#000" opacity="0">Oct 01, 2020</text><text text-anchor="middle" transform="translate(253.72616984402077,15)" font-family="sans-serif" font-size="10px" fill="#000" opacity="1">Jan 01, 2021</text><text text-anchor="middle" transform="translate(316.0889659156557,15)" font-family="sans-serif" font-size="10px" fill="#000" opacity="0">Apr 01, 2021</text><text text-anchor="middle" transform="translate(379.1738879260543,15)" font-family="sans-serif" font-size="10px" fill="#000" opacity="1">Jul 01, 2021</text><text text-anchor="middle" transform="translate(442.9520508376661,15)" font-family="sans-serif" font-size="10px" fill="#000" opacity="0">Oct 01, 2021</text><text text-anchor="middle" transform="translate(506.7590987868284,15)" font-family="sans-serif" font-size="10px" fill="#000" opacity="1">Jan 01, 2022</text><text text-anchor="middle" transform="translate(569.1218948584633,15)" font-family="sans-serif" font-size="10px" fill="#000" opacity="0">Apr 01, 2022</text><text text-anchor="middle" transform="translate(632.2068168688619,15)" font-family="sans-serif" font-size="10px" fill="#000" opacity="1">Jul 01, 2022</text><text text-anchor="middle" transform="translate(695.9849797804737,15)" font-family="sans-serif" font-size="10px" fill="#000" opacity="0">Oct 01, 2022</text><text text-anchor="middle" transform="translate(759.7920277296361,15)" font-family="sans-serif" font-size="10px" fill="#000" opacity="1">Jan 01, 2023</text></g><g class="mark-rule role-axis-domain" pointer-events="none"><line transform="translate(0,0)" x2="800" y2="0" stroke="#888" stroke-width="1" opacity="1"/></g><g class="mark-text role-axis-title" pointer-events="none"><text text-anchor="middle" transform="translate(400,30)" font-family="sans-serif" font-size="11px" font-weight="bold" fill="#000" opacity="1">Timepoint</text></g></g><path class="foreground" aria-hidden="true" d="" pointer-events="none" display="none"/></g></g><g class="mark-group role-axis" role="graphics-symbol" aria-roledescription="axis" aria-label="Y-axis titled 'Containment Policy Stringency' for a linear scale with values from 0 to 90"><g transform="translate(0.5,0.5)"><path class="background" aria-hidden="true" d="M0,0h0v0h0Z" pointer-events="none"/><g><g class="mark-rule role-axis-tick" pointer-events="none"><line transform="translate(0,400)" x2="-5" y2="0" stroke="#888" stroke-width="1" opacity="1"/><line transform="translate(0,356)" x2="-5" y2="0" stroke="#888" stroke-width="1" opacity="1"/><line transform="translate(0,311)" x2="-5" y2="0" stroke="#888" stroke-width="1" opacity="1"/><line transform="translate(0,267)" x2="-5" y2="0" stroke="#888" stroke-width="1" opacity="1"/><line transform="translate(0,222)" x2="-5" y2="0" stroke="#888" stroke-width="1" opacity="1"/><line transform="translate(0,178)" x2="-5" y2="0" stroke="#888" stroke-width="1" opacity="1"/><line transform="translate(0,133)" x2="-5" y2="0" stroke="#888" stroke-width="1" opacity="1"/><line transform="translate(0,89)" x2="-5" y2="0" stroke="#888" stroke-width="1" opacity="1"/><line transform="translate(0,44)" x2="-5" y2="0" stroke="#888" stroke-width="1" opacity="1"/><line transform="translate(0,0)" x2="-5" y2="0" stroke="#888" stroke-width="1" opacity="1"/></g><g class="mark-text role-axis-label" pointer-events="none"><text text-anchor="end" transform="translate(-7,403)" font-family="sans-serif" font-size="10px" fill="#000" opacity="1">0</text><text text-anchor="end" transform="translate(-7,358.55555555555554)" font-family="sans-serif" font-size="10px" fill="#000" opacity="1">10</text><text text-anchor="end" transform="translate(-7,314.11111111111114)" font-family="sans-serif" font-size="10px" fill="#000" opacity="1">20</text><text text-anchor="end" transform="translate(-7,269.6666666666667)" font-family="sans-serif" font-size="10px" fill="#000" opacity="1">30</text><text text-anchor="end" transform="translate(-7,225.22222222222223)" font-family="sans-serif" font-size="10px" fill="#000" opacity="1">40</text><text text-anchor="end" transform="translate(-7,180.77777777777777)" font-family="sans-serif" font-size="10px" fill="#000" opacity="1">50</text><text text-anchor="end" transform="translate(-7,136.33333333333334)" font-family="sans-serif" font-size="10px" fill="#000" opacity="1">60</text><text text-anchor="end" transform="translate(-7,91.88888888888889)" font-family="sans-serif" font-size="10px" fill="#000" opacity="1">70</text><text text-anchor="end" transform="translate(-7,47.444444444444464)" font-family="sans-serif" font-size="10px" fill="#000" opacity="1">80</text><text text-anchor="end" transform="translate(-7,3)" font-family="sans-serif" font-size="10px" fill="#000" opacity="1">90</text></g><g class="mark-rule role-axis-domain" pointer-events="none"><line transform="translate(0,400)" x2="0" y2="-400" stroke="#888" stroke-width="1" opacity="1"/></g><g class="mark-text role-axis-title" pointer-events="none"><text text-anchor="middle" transform="translate(-23,200) rotate(-90) translate(0,-3)" font-family="sans-serif" font-size="14px" font-weight="normal" fill="#d57e7e" opacity="1">Containment Policy Stringency</text></g></g><path class="foreground" aria-hidden="true" d="" pointer-events="none" display="none"/></g></g><g class="mark-group role-axis" role="graphics-symbol" aria-roledescription="axis" aria-label="Y-axis titled 'Percentage of Population Vaccinated' for a linear scale with values from 0 to 90"><g transform="translate(800.5,0.5)"><path class="background" aria-hidden="true" d="M0,0h0v0h0Z" pointer-events="none"/><g><g class="mark-rule role-axis-tick" pointer-events="none"><line transform="translate(0,400)" x2="5" y2="0" stroke="#888" stroke-width="1" opacity="1"/><line transform="translate(0,356)" x2="5" y2="0" stroke="#888" stroke-width="1" opacity="1"/><line transform="translate(0,311)" x2="5" y2="0" stroke="#888" stroke-width="1" opacity="1"/><line transform="translate(0,267)" x2="5" y2="0" stroke="#888" stroke-width="1" opacity="1"/><line transform="translate(0,222)" x2="5" y2="0" stroke="#888" stroke-width="1" opacity="1"/><line transform="translate(0,178)" x2="5" y2="0" stroke="#888" stroke-width="1" opacity="1"/><line transform="translate(0,133)" x2="5" y2="0" stroke="#888" stroke-width="1" opacity="1"/><line transform="translate(0,89)" x2="5" y2="0" stroke="#888" stroke-width="1" opacity="1"/><line transform="translate(0,44)" x2="5" y2="0" stroke="#888" stroke-width="1" opacity="1"/><line transform="translate(0,0)" x2="5" y2="0" stroke="#888" stroke-width="1" opacity="1"/></g><g class="mark-text role-axis-label" pointer-events="none"><text text-anchor="start" transform="translate(7,403)" font-family="sans-serif" font-size="10px" fill="#000" opacity="1">0</text><text text-anchor="start" transform="translate(7,358.55555555555554)" font-family="sans-serif" font-size="10px" fill="#000" opacity="1">10</text><text text-anchor="start" transform="translate(7,314.11111111111114)" font-family="sans-serif" font-size="10px" fill="#000" opacity="1">20</text><text text-anchor="start" transform="translate(7,269.6666666666667)" font-family="sans-serif" font-size="10px" fill="#000" opacity="1">30</text><text text-anchor="start" transform="translate(7,225.22222222222223)" font-family="sans-serif" font-size="10px" fill="#000" opacity="1">40</text><text text-anchor="start" transform="translate(7,180.77777777777777)" font-family="sans-serif" font-size="10px" fill="#000" opacity="1">50</text><text text-anchor="start" transform="translate(7,136.33333333333334)" font-family="sans-serif" font-size="10px" fill="#000" opacity="1">60</text><text text-anchor="start" transform="translate(7,91.88888888888889)" font-family="sans-serif" font-size="10px" fill="#000" opacity="1">70</text><text text-anchor="start" transform="translate(7,47.444444444444464)" font-family="sans-serif" font-size="10px" fill="#000" opacity="1">80</text><text text-anchor="start" transform="translate(7,3)" font-family="sans-serif" font-size="10px" fill="#000" opacity="1">90</text></g><g class="mark-rule role-axis-domain" pointer-events="none"><line transform="translate(0,400)" x2="0" y2="-400" stroke="#888" stroke-width="1" opacity="1"/></g><g class="mark-text role-axis-title" pointer-events="none"><text text-anchor="middle" transform="translate(23,200) rotate(90) translate(0,-3)" font-family="sans-serif" font-size="14px" font-weight="normal" fill="#7eaad5" opacity="1">Percentage of Population Vaccinated</text></g></g><path class="foreground" aria-hidden="true" d="" pointer-events="none" display="none"/></g></g><g class="mark-line role-mark layer_0_marks" clip-path="url(#clip1)" role="graphics-object" aria-roledescription="line mark container"><path aria-label="Timepoint: Jan 01, 2020; Containment Policy Stringency: 0" role="graphics-symbol" aria-roledescription="line mark" d="M0,400L0.693,400L1.386,400L2.08,400L2.773,400L3.466,400L4.159,400L4.853,400L5.546,400L6.239,400L6.932,400L7.626,400L8.319,400L9.012,400L9.705,400L10.399,400L11.092,400L11.785,400L12.478,400L13.172,400L13.865,400L14.558,282.711L15.251,200.4L15.945,200.4L16.638,188.044L17.331,89.289L18.024,89.289L18.718,89.289L19.411,89.289L20.104,89.289L20.797,89.289L21.49,56.4L22.184,56.4L22.877,56.4L23.57,56.4L24.263,56.4L24.957,56.4L25.65,56.4L26.343,56.4L27.036,56.4L27.73,64.622L28.423,64.622L29.116,64.622L29.809,64.622L30.503,64.622L31.196,64.622L31.889,64.622L32.582,64.622L33.276,64.622L33.969,64.622L34.662,64.622L35.355,64.622L36.049,64.622L36.742,64.622L37.435,64.622L38.128,39.911L38.821,39.911L39.515,39.911L40.208,39.911L40.901,39.911L41.594,39.911L42.288,39.911L42.981,39.911L43.674,39.911L44.367,39.911L45.061,39.911L45.754,39.911L46.447,39.911L47.14,39.911L47.834,39.911L48.527,39.911L49.22,39.911L49.913,39.911L50.607,39.911L51.3,39.911L51.993,48.133L52.686,48.133L53.38,48.133L54.073,48.133L54.766,48.133L55.459,48.133L56.153,48.133L56.846,48.133L57.539,48.133L58.232,48.133L58.925,35.822L59.619,35.822L60.312,72.844L61.005,72.844L61.67,72.844L62.363,72.844L63.056,72.844L63.749,72.844L64.443,89.289L65.136,89.289L65.829,89.289L66.522,89.289L67.215,89.289L67.909,146.933L68.602,146.933L69.295,146.933L69.988,146.933L70.682,146.933L71.375,146.933L72.068,146.933L72.761,146.933L73.455,146.933L74.148,146.933L74.841,146.933L75.534,146.933L76.228,146.933L76.921,146.933L77.614,146.933L78.307,146.933L79.001,146.933L79.694,146.933L80.387,146.933L81.08,146.933L81.774,146.933L82.467,146.933L83.16,146.933L83.853,146.933L84.547,146.933L85.24,146.933L85.933,146.933L86.626,146.933L87.319,146.933L88.013,146.933L88.706,146.933L89.399,146.933L90.092,35.822L90.786,35.822L91.479,35.822L92.172,35.822L92.865,35.822L93.559,35.822L94.252,35.822L94.945,35.822L95.638,35.822L96.332,35.822L97.025,35.822L97.718,35.822L98.411,35.822L99.105,35.822L99.798,35.822L100.491,35.822L101.184,35.822L101.878,35.822L102.571,35.822L103.264,35.822L103.957,35.822L104.65,35.822L105.344,35.822L106.037,35.822L106.73,52.267L107.423,52.267L108.117,52.267L108.81,52.267L109.503,52.267L110.196,52.267L110.89,52.267L111.583,52.267L112.276,52.267L112.969,52.267L113.663,52.267L114.356,52.267L115.049,52.267L115.742,52.267L116.436,52.267L117.129,52.267L117.822,52.267L118.515,52.267L119.209,52.267L119.902,52.267L120.595,52.267L121.288,52.267L121.982,52.267L122.675,52.267L123.368,52.267L124.061,52.267L124.754,52.267L125.448,52.267L126.141,52.267L126.834,52.267L127.527,52.267L128.221,52.267L128.914,52.267L129.607,52.267L130.3,52.267L130.994,52.267L131.687,52.267L132.38,52.267L133.073,52.267L133.767,52.267L134.46,52.267L135.153,52.267L135.846,52.267L136.54,52.267L137.233,52.267L137.926,52.267L138.619,52.267L139.313,52.267L140.006,52.267L140.699,52.267L141.392,52.267L142.085,52.267L142.779,52.267L143.472,52.267L144.165,52.267L144.858,52.267L145.552,52.267L146.245,52.267L146.938,52.267L147.631,52.267L148.325,52.267L149.018,52.267L149.711,52.267L150.404,52.267L151.098,52.267L151.791,52.267L152.484,52.267L153.177,52.267L153.871,52.267L154.564,52.267L155.257,52.267L155.95,52.267L156.644,52.267L157.337,52.267L158.03,52.267L158.723,52.267L159.417,52.267L160.11,52.267L160.803,52.267L161.496,52.267L162.189,52.267L162.883,52.267L163.576,52.267L164.269,52.267L164.962,52.267L165.656,52.267L166.349,52.267L167.042,52.267L167.735,52.267L168.429,52.267L169.122,52.267L169.815,155.156L170.508,155.156L171.202,192.178L171.895,192.178L172.588,192.178L173.281,192.178L173.975,192.178L174.668,192.178L175.361,192.178L176.054,192.178L176.748,192.178L177.441,192.178L178.134,192.178L178.827,35.822L179.521,35.822L180.214,35.822L180.907,35.822L181.6,35.822L182.293,35.822L182.987,64.622L183.68,81.067L184.373,118.089L185.066,118.089L185.76,118.089L186.453,159.244L187.146,159.244L187.839,159.244L188.533,159.244L189.226,159.244L189.919,159.244L190.612,159.244L191.306,159.244L191.999,159.244L192.692,159.244L193.385,159.244L194.079,159.244L194.772,159.244L195.465,159.244L196.158,167.511L196.852,167.511L197.545,126.356L198.238,126.356L198.931,126.356L199.624,126.356L200.318,126.356L201.011,126.356L201.704,126.356L202.397,126.356L203.091,126.356L203.784,126.356L204.477,126.356L205.17,126.356L205.864,35.822L206.557,35.822L207.279,35.822L207.972,35.822L208.666,35.822L209.359,35.822L210.052,93.422L210.745,118.089L211.438,118.089L212.132,118.089L212.825,118.089L213.518,118.089L214.211,118.089L214.905,118.089L215.598,118.089L216.291,118.089L216.984,118.089L217.678,118.089L218.371,118.089L219.064,118.089L219.757,118.089L220.451,118.089L221.144,118.089L221.837,118.089L222.53,118.089L223.224,118.089L223.917,118.089L224.61,60.489L225.303,60.489L225.997,60.489L226.69,60.489L227.383,35.822L228.076,35.822L228.769,35.822L229.463,35.822L230.156,35.822L230.849,35.822L231.542,35.822L232.236,35.822L232.929,35.822L233.622,35.822L234.315,35.822L235.009,35.822L235.702,35.822L236.395,35.822L237.088,52.267L237.782,52.267L238.475,52.267L239.168,52.267L239.861,52.267L240.555,52.267L241.248,52.267L241.941,52.267L242.634,52.267L243.328,52.267L244.021,52.267L244.714,52.267L245.407,52.267L246.101,52.267L246.794,52.267L247.487,52.267L248.18,52.267L248.873,52.267L249.567,52.267L250.26,52.267L250.953,52.267L251.646,52.267L252.34,52.267L253.033,52.267L253.726,52.267L254.419,52.267L255.113,52.267L255.806,52.267L256.499,52.267L257.192,52.267L257.886,52.267L258.579,52.267L259.272,52.267L259.965,52.267L260.659,52.267L261.352,52.267L262.045,52.267L262.738,52.267L263.432,52.267L264.125,52.267L264.818,52.267L265.511,52.267L266.205,52.267L266.898,52.267L267.591,52.267L268.284,52.267L268.977,52.267L269.671,52.267L270.364,52.267L271.057,52.267L271.75,52.267L272.444,52.267L273.137,52.267L273.83,52.267L274.523,52.267L275.217,52.267L275.91,52.267L276.603,52.267L277.296,52.267L277.99,52.267L278.683,52.267L279.376,52.267L280.069,52.267L280.763,52.267L281.456,52.267L282.149,52.267L282.842,52.267L283.536,52.267L284.229,52.267L284.922,52.267L285.615,52.267L286.308,52.267L287.002,52.267L287.695,52.267L288.388,52.267L289.081,52.267L289.775,126.356L290.468,126.356L291.161,126.356L291.854,126.356L292.548,126.356L293.241,126.356L293.934,126.356L294.627,151.022L295.321,151.022L296.014,151.022L296.707,151.022L297.4,151.022L298.094,151.022L298.787,151.022L299.48,151.022L300.173,151.022L300.867,151.022L301.56,151.022L302.253,151.022L302.946,151.022L303.64,151.022L304.333,171.6L305.026,171.6L305.719,171.6L306.412,171.6L307.106,171.6L307.799,171.6L308.492,171.6L309.185,171.6L309.879,171.6L310.572,171.6L311.265,171.6L311.958,171.6L312.652,171.6L313.345,171.6L314.009,202.489L314.702,202.489L315.396,177.778L316.089,177.778L316.782,177.778L317.475,177.778L318.169,177.778L318.862,52.267L319.555,52.267L320.248,52.267L320.942,52.267L321.635,52.267L322.328,52.267L323.021,52.267L323.715,52.267L324.408,52.267L325.101,52.267L325.794,52.267L326.488,52.267L327.181,52.267L327.874,52.267L328.567,52.267L329.261,52.267L329.954,52.267L330.647,52.267L331.34,52.267L332.034,52.267L332.727,52.267L333.42,52.267L334.113,52.267L334.806,52.267L335.5,52.267L336.193,52.267L336.886,52.267L337.579,52.267L338.273,52.267L338.966,101.644L339.659,101.644L340.352,118.089L341.046,118.089L341.739,118.089L342.432,118.089L343.125,118.089L343.819,118.089L344.512,126.356L345.205,126.356L345.898,101.644L346.592,101.644L347.285,93.422L347.978,93.422L348.671,93.422L349.365,93.422L350.058,93.422L350.751,93.422L351.444,93.422L352.137,93.422L352.831,93.422L353.524,93.422L354.217,93.422L354.91,93.422L355.604,93.422L356.297,105.778L356.99,105.778L357.683,105.778L358.377,105.778L359.07,105.778L359.763,105.778L360.456,105.778L361.15,105.778L361.843,105.778L362.536,105.778L363.229,105.778L363.923,105.778L364.616,105.778L365.309,89.289L366.002,89.289L366.696,89.289L367.389,89.289L368.082,52.267L368.775,52.267L369.469,52.267L370.162,52.267L370.855,52.267L371.548,52.267L372.241,52.267L372.935,52.267L373.628,52.267L374.321,68.711L375.014,68.711L375.708,68.711L376.401,68.711L377.094,68.711L377.787,68.711L378.481,68.711L379.174,68.711L379.867,93.422L380.56,93.422L381.254,93.422L381.947,93.422L382.64,93.422L383.333,35.822L384.027,35.822L384.72,35.822L385.413,35.822L386.106,35.822L386.8,35.822L387.493,35.822L388.186,35.822L388.879,35.822L389.573,35.822L390.266,35.822L390.959,35.822L391.652,35.822L392.345,85.2L393.039,85.2L393.732,85.2L394.425,85.2L395.118,85.2L395.812,85.2L396.505,85.2L397.198,85.2L397.891,85.2L398.585,85.2L399.278,85.2L399.971,85.2L400.664,85.2L401.358,85.2L402.051,85.2L402.744,85.2L403.437,85.2L404.131,85.2L404.824,85.2L405.517,85.2L406.21,85.2L406.904,85.2L407.597,85.2L408.29,85.2L408.983,85.2L409.676,85.2L410.37,85.2L411.063,85.2L411.756,85.2L412.449,85.2L413.143,85.2L413.836,85.2L414.529,85.2L415.222,85.2L415.916,85.2L416.609,85.2L417.302,85.2L417.995,85.2L418.689,85.2L419.382,85.2L420.075,85.2L420.768,85.2L421.462,85.2L422.155,85.2L422.848,85.2L423.541,85.2L424.235,85.2L424.928,85.2L425.621,85.2L426.314,85.2L427.008,85.2L427.701,85.2L428.394,85.2L429.087,85.2L429.78,85.2L430.474,85.2L431.167,85.2L431.86,85.2L432.553,85.2L433.247,85.2L433.94,60.489L434.633,60.489L435.326,60.489L436.02,60.489L436.713,60.489L437.406,60.489L438.099,60.489L438.793,60.489L439.486,60.489L440.179,60.489L440.872,60.489L441.566,60.489L442.259,60.489L442.952,60.489L443.645,60.489L444.339,60.489L445.032,60.489L445.725,60.489L446.418,60.489L447.111,60.489L447.805,60.489L448.498,60.489L449.191,60.489L449.884,60.489L450.578,60.489L451.271,60.489L451.964,60.489L452.657,60.489L453.351,60.489L454.044,60.489L454.737,60.489L455.43,85.2L456.124,85.2L456.817,85.2L457.51,85.2L458.203,85.2L458.897,85.2L459.59,85.2L460.283,85.2L460.976,85.2L461.67,85.2L462.363,85.2L463.056,85.2L463.749,85.2L464.471,85.2L465.165,85.2L465.858,85.2L466.551,85.2L467.244,85.2L467.938,85.2L468.631,85.2L469.324,85.2L470.017,85.2L470.711,85.2L471.404,85.2L472.097,85.2L472.79,109.867L473.484,109.867L474.177,109.867L474.87,109.867L475.563,109.867L476.256,109.867L476.95,109.867L477.643,109.867L478.336,109.867L479.029,109.867L479.723,109.867L480.416,109.867L481.109,109.867L481.802,109.867L482.496,109.867L483.189,85.2L483.882,85.2L484.575,85.2L485.269,85.2L485.962,85.2L486.655,85.2L487.348,85.2L488.042,85.2L488.735,85.2L489.428,85.2L490.121,85.2L490.815,85.2L491.508,85.2L492.201,85.2L492.894,85.2L493.588,85.2L494.281,85.2L494.974,85.2L495.667,85.2L496.36,85.2L497.054,85.2L497.747,85.2L498.44,85.2L499.133,85.2L499.827,85.2L500.52,48.133L501.213,48.133L501.906,48.133L502.6,48.133L503.293,48.133L503.986,48.133L504.679,48.133L505.373,48.133L506.066,48.133L506.759,48.133L507.452,48.133L508.146,48.133L508.839,48.133L509.532,48.133L510.225,48.133L510.919,48.133L511.612,48.133L512.305,48.133L512.998,48.133L513.692,48.133L514.385,48.133L515.078,48.133L515.771,48.133L516.464,48.133L517.158,48.133L517.851,48.133L518.544,48.133L519.237,48.133L519.931,48.133L520.624,48.133L521.317,48.133L522.01,48.133L522.704,114L523.397,114L524.09,114L524.783,114L525.477,114L526.17,114L526.863,114L527.556,114L528.25,114L528.943,114L529.636,114L530.329,114L531.023,114L531.716,114L532.409,114L533.102,114L533.795,114L534.489,114L535.182,114L535.875,114L536.568,114L537.262,114L537.955,114L538.648,114L539.341,114L540.035,114L540.728,114L541.421,114L542.114,114L542.808,114L543.501,114L544.194,114L544.887,114L545.581,114L546.274,114L546.967,135.378L547.66,135.378L548.354,135.378L549.047,135.378L549.74,135.378L550.433,135.378L551.127,135.378L551.82,135.378L552.513,135.378L553.206,135.378L553.899,135.378L554.593,135.378L555.286,135.378L555.979,135.378L556.672,114L557.366,114L558.059,114L558.752,114L559.445,114L560.139,114L560.832,114L561.525,114L562.218,114L562.912,114L563.605,114L564.298,114L564.991,114L565.685,114L566.349,97.511L567.042,72.844L567.735,72.844L568.429,72.844L569.122,72.844L569.815,72.844L570.508,72.844L571.202,72.844L571.895,72.844L572.588,72.844L573.281,72.844L573.975,48.133L574.668,48.133L575.361,48.133L576.054,48.133L576.748,48.133L577.441,48.133L578.134,48.133L578.827,48.133L579.521,64.622L580.214,64.622L580.907,48.133L581.6,48.133L582.293,48.133L582.987,48.133L583.68,48.133L584.373,48.133L585.066,48.133L585.76,48.133L586.453,48.133L587.146,48.133L587.839,48.133L588.533,48.133L589.226,48.133L589.919,48.133L590.612,48.133L591.306,48.133L591.999,48.133L592.692,48.133L593.385,48.133L594.079,48.133L594.772,48.133L595.465,48.133L596.158,48.133L596.852,48.133L597.545,48.133L598.238,48.133L598.931,48.133L599.624,48.133L600.318,48.133L601.011,48.133L601.704,48.133L602.397,48.133L603.091,48.133L603.784,48.133L604.477,48.133L605.17,48.133L605.864,48.133L606.557,48.133L607.25,48.133L607.943,48.133L608.637,48.133L609.33,48.133L610.023,48.133L610.716,48.133L611.41,48.133L612.103,48.133L612.796,48.133L613.489,48.133L614.183,48.133L614.876,48.133L615.569,48.133L616.262,48.133L616.956,48.133L617.649,48.133L618.342,48.133L619.035,48.133L619.728,48.133L620.422,48.133L621.115,48.133L621.808,48.133L622.501,48.133L623.195,48.133L623.888,48.133L624.581,48.133L625.274,48.133L625.968,48.133L626.661,48.133L627.354,48.133L628.047,48.133L628.741,48.133L629.434,48.133L630.127,48.133L630.82,48.133L631.514,48.133L632.207,72.844L632.9,72.844L633.593,72.844L634.287,72.844L634.98,72.844L635.673,72.844L636.366,72.844L637.06,72.844L637.753,72.844L638.446,72.844L639.139,72.844L639.832,72.844L640.526,72.844L641.219,72.844L641.912,72.844L642.605,72.844L643.299,72.844L643.992,72.844L644.685,72.844L645.378,72.844L646.072,72.844L646.765,72.844L647.458,72.844L648.151,72.844L648.845,72.844L649.538,72.844L650.231,72.844L650.924,72.844L651.618,72.844L652.311,72.844L653.004,72.844L653.697,72.844L654.391,72.844L655.084,72.844L655.777,72.844L656.47,72.844L657.163,72.844L657.857,72.844L658.55,72.844L659.243,72.844L659.936,72.844L660.63,72.844L661.323,72.844L662.016,72.844L662.709,72.844L663.403,72.844L664.096,72.844L664.789,72.844L665.482,72.844L666.176,72.844L666.869,72.844L667.562,72.844L668.255,72.844L668.949,48.133L669.642,48.133L670.335,48.133L671.028,48.133L671.722,48.133L672.415,48.133L673.108,48.133L673.801,48.133L674.495,48.133L675.188,64.622L675.881,64.622L676.574,64.622L677.267,64.622L677.961,64.622L678.654,64.622L679.347,64.622L680.04,64.622L680.734,64.622L681.427,89.289L682.12,89.289L682.813,89.289L683.507,89.289L684.2,89.289L684.893,89.289L685.586,89.289L686.28,89.289L686.973,89.289L687.666,89.289L688.359,89.289L689.053,89.289L689.746,89.289L690.439,89.289L691.132,89.289L691.826,89.289L692.519,89.289L693.212,89.289L693.905,89.289L694.598,89.289L695.292,89.289L695.985,89.289L696.678,89.289L697.371,89.289L698.065,89.289L698.758,89.289L699.451,89.289L700.144,89.289L700.838,89.289L701.531,89.289L702.224,105.778L702.917,105.778L703.611,105.778L704.304,105.778L704.997,105.778L705.69,105.778L706.384,105.778L707.077,105.778L707.77,105.778L708.463,105.778L709.157,105.778L709.85,105.778L710.543,105.778L711.236,105.778L711.93,105.778L712.623,105.778L713.316,105.778L714.009,105.778L714.702,105.778L715.396,105.778L716.089,105.778L716.811,105.778L717.504,105.778L718.198,122.222L718.891,122.222L719.584,122.222L720.277,122.222L720.971,122.222L721.664,122.222L722.357,122.222L723.05,122.222L723.744,122.222L724.437,122.222L725.13,122.222L725.823,122.222L726.516,122.222L727.21,122.222L727.903,122.222L728.596,122.222L729.289,89.289L729.983,89.289L730.676,89.289L731.369,64.622L732.062,64.622L732.756,48.133L733.449,48.133L734.142,48.133L734.835,48.133L735.529,48.133L736.222,48.133L736.915,48.133L737.608,48.133L738.302,81.067L738.995,81.067L739.688,81.067L740.381,81.067L741.075,81.067L741.768,81.067L742.461,81.067L743.154,93.422L743.847,101.644L744.541,101.644L745.234,101.644L745.927,101.644L746.62,138.667L747.314,163.378L748.007,163.378L748.7,163.378L749.393,163.378L750.087,163.378L750.78,188.044L751.473,188.044L752.166,188.044L752.86,188.044L753.553,188.044L754.246,188.044L754.939,188.044L755.633,188.044L756.326,188.044L757.019,188.044L757.712,188.044L758.406,188.044L759.099,188.044L759.792,400L760.485,400L761.179,400L761.872,400L762.565,400L763.258,400L763.951,400L764.645,400L765.338,400L766.031,400L766.724,400L767.418,400L768.111,400L768.804,400L769.497,400L770.191,400L770.884,400L771.577,400L772.27,400L772.964,400L773.657,400L774.35,400L775.043,400L775.737,400L776.43,400L777.123,400L777.816,400L778.51,400L779.203,400L779.896,400L780.589,400L781.282,400L781.976,400L782.669,400L783.362,400L784.055,400L784.749,400L785.442,400L786.135,400L786.828,400L787.522,400L788.215,400L788.908,400L789.601,400L790.295,400L790.988,400L791.681,400L792.374,400L793.068,400L793.761,400L794.454,400L795.147,400L795.841,400L796.534,400L797.227,400L797.92,400L798.614,400L799.307,400L800,400" stroke="#d57e7e" stroke-width="2"/></g><g class="mark-line role-mark layer_1_marks" role="graphics-object" aria-roledescription="line mark container"><path aria-label="Timepoint: Jan 01, 2020; PopulationVaccinated: 0" role="graphics-symbol" aria-roledescription="line mark" d="M0,400C0.231,400,0.462,400,0.693,400C0.924,400,1.155,400,1.386,400C1.618,400,1.849,400,2.08,400C2.311,400,2.542,400,2.773,400C3.004,400,3.235,400,3.466,400C3.697,400,3.928,400,4.159,400C4.391,400,4.622,400,4.853,400C5.084,400,5.315,400,5.546,400C5.777,400,6.008,400,6.239,400C6.47,400,6.701,400,6.932,400C7.163,400,7.395,400,7.626,400C7.857,400,8.088,400,8.319,400C8.55,400,8.781,400,9.012,400C9.243,400,9.474,400,9.705,400C9.936,400,10.168,400,10.399,400C10.63,400,10.861,400,11.092,400C11.323,400,11.554,400,11.785,400C12.016,400,12.247,400,12.478,400C12.709,400,12.94,400,13.172,400C13.403,400,13.634,400,13.865,400C14.096,400,14.327,400,14.558,400C14.789,400,15.02,400,15.251,400C15.482,400,15.713,400,15.945,400C16.176,400,16.407,400,16.638,400C16.869,400,17.1,400,17.331,400C17.562,400,17.793,400,18.024,400C18.255,400,18.486,400,18.718,400C18.949,400,19.18,400,19.411,400C19.642,400,19.873,400,20.104,400C20.335,400,20.566,400,20.797,400C21.028,400,21.259,400,21.49,400C21.722,400,21.953,400,22.184,400C22.415,400,22.646,400,22.877,400C23.108,400,23.339,400,23.57,400C23.801,400,24.032,400,24.263,400C24.495,400,24.726,400,24.957,400C25.188,400,25.419,400,25.65,400C25.881,400,26.112,400,26.343,400C26.574,400,26.805,400,27.036,400C27.267,400,27.499,400,27.73,400C27.961,400,28.192,400,28.423,400C28.654,400,28.885,400,29.116,400C29.347,400,29.578,400,29.809,400C30.04,400,30.272,400,30.503,400C30.734,400,30.965,400,31.196,400C31.427,400,31.658,400,31.889,400C32.12,400,32.351,400,32.582,400C32.813,400,33.044,400,33.276,400C33.507,400,33.738,400,33.969,400C34.2,400,34.431,400,34.662,400C34.893,400,35.124,400,35.355,400C35.586,400,35.817,400,36.049,400C36.28,400,36.511,400,36.742,400C36.973,400,37.204,400,37.435,400C37.666,400,37.897,400,38.128,400C38.359,400,38.59,400,38.821,400C39.053,400,39.284,400,39.515,400C39.746,400,39.977,400,40.208,400C40.439,400,40.67,400,40.901,400C41.132,400,41.363,400,41.594,400C41.826,400,42.057,400,42.288,400C42.519,400,42.75,400,42.981,400C43.212,400,43.443,400,43.674,400C43.905,400,44.136,400,44.367,400C44.598,400,44.83,400,45.061,400C45.292,400,45.523,400,45.754,400C45.985,400,46.216,400,46.447,400C46.678,400,46.909,400,47.14,400C47.371,400,47.603,400,47.834,400C48.065,400,48.296,400,48.527,400C48.758,400,48.989,400,49.22,400C49.451,400,49.682,400,49.913,400C50.144,400,50.376,400,50.607,400C50.838,400,51.069,400,51.3,400C51.531,400,51.762,400,51.993,400C52.224,400,52.455,400,52.686,400C52.917,400,53.148,400,53.38,400C53.611,400,53.842,400,54.073,400C54.304,400,54.535,400,54.766,400C54.997,400,55.228,400,55.459,400C55.69,400,55.921,400,56.153,400C56.384,400,56.615,400,56.846,400C57.077,400,57.308,400,57.539,400C57.77,400,58.001,400,58.232,400C58.463,400,58.694,400,58.925,400C59.157,400,59.388,400,59.619,400C59.85,400,60.081,400,60.312,400C60.543,400,60.774,400,61.005,400C61.227,400,61.448,400,61.67,400C61.901,400,62.132,400,62.363,400C62.594,400,62.825,400,63.056,400C63.287,400,63.518,400,63.749,400C63.98,400,64.211,400,64.443,400C64.674,400,64.905,400,65.136,400C65.367,400,65.598,400,65.829,400C66.06,400,66.291,400,66.522,400C66.753,400,66.984,400,67.215,400C67.447,400,67.678,400,67.909,400C68.14,400,68.371,400,68.602,400C68.833,400,69.064,400,69.295,400C69.526,400,69.757,400,69.988,400C70.22,400,70.451,400,70.682,400C70.913,400,71.144,400,71.375,400C71.606,400,71.837,400,72.068,400C72.299,400,72.53,400,72.761,400C72.992,400,73.224,400,73.455,400C73.686,400,73.917,400,74.148,400C74.379,400,74.61,400,74.841,400C75.072,400,75.303,400,75.534,400C75.765,400,75.997,400,76.228,400C76.459,400,76.69,400,76.921,400C77.152,400,77.383,400,77.614,400C77.845,400,78.076,400,78.307,400C78.538,400,78.769,400,79.001,400C79.232,400,79.463,400,79.694,400C79.925,400,80.156,400,80.387,400C80.618,400,80.849,400,81.08,400C81.311,400,81.542,400,81.774,400C82.005,400,82.236,400,82.467,400C82.698,400,82.929,400,83.16,400C83.391,400,83.622,400,83.853,400C84.084,400,84.315,400,84.547,400C84.778,400,85.009,400,85.24,400C85.471,400,85.702,400,85.933,400C86.164,400,86.395,400,86.626,400C86.857,400,87.088,400,87.319,400C87.551,400,87.782,400,88.013,400C88.244,400,88.475,400,88.706,400C88.937,400,89.168,400,89.399,400C89.63,400,89.861,400,90.092,400C90.324,400,90.555,400,90.786,400C91.017,400,91.248,400,91.479,400C91.71,400,91.941,400,92.172,400C92.403,400,92.634,400,92.865,400C93.096,400,93.328,400,93.559,400C93.79,400,94.021,400,94.252,400C94.483,400,94.714,400,94.945,400C95.176,400,95.407,400,95.638,400C95.869,400,96.101,400,96.332,400C96.563,400,96.794,400,97.025,400C97.256,400,97.487,400,97.718,400C97.949,400,98.18,400,98.411,400C98.642,400,98.873,400,99.105,400C99.336,400,99.567,400,99.798,400C100.029,400,100.26,400,100.491,400C100.722,400,100.953,400,101.184,400C101.415,400,101.646,400,101.878,400C102.109,400,102.34,400,102.571,400C102.802,400,103.033,400,103.264,400C103.495,400,103.726,400,103.957,400C104.188,400,104.419,400,104.65,400C104.882,400,105.113,400,105.344,400C105.575,400,105.806,400,106.037,400C106.268,400,106.499,400,106.73,400C106.961,400,107.192,400,107.423,400C107.655,400,107.886,400,108.117,400C108.348,400,108.579,400,108.81,400C109.041,400,109.272,400,109.503,400C109.734,400,109.965,400,110.196,400C110.427,400,110.659,400,110.89,400C111.121,400,111.352,400,111.583,400C111.814,400,112.045,400,112.276,400C112.507,400,112.738,400,112.969,400C113.2,400,113.432,400,113.663,400C113.894,400,114.125,400,114.356,400C114.587,400,114.818,400,115.049,400C115.28,400,115.511,400,115.742,400C115.973,400,116.205,400,116.436,400C116.667,400,116.898,400,117.129,400C117.36,400,117.591,400,117.822,400C118.053,400,118.284,400,118.515,400C118.746,400,118.977,400,119.209,400C119.44,400,119.671,400,119.902,400C120.133,400,120.364,400,120.595,400C120.826,400,121.057,400,121.288,400C121.519,400,121.75,400,121.982,400C122.213,400,122.444,400,122.675,400C122.906,400,123.137,400,123.368,400C123.599,400,123.83,400,124.061,400C124.292,400,124.523,400,124.754,400C124.986,400,125.217,400,125.448,400C125.679,400,125.91,400,126.141,400C126.372,400,126.603,400,126.834,400C127.065,400,127.296,400,127.527,400C127.759,400,127.99,400,128.221,400C128.452,400,128.683,400,128.914,400C129.145,400,129.376,400,129.607,400C129.838,400,130.069,400,130.3,400C130.531,400,130.763,400,130.994,400C131.225,400,131.456,400,131.687,400C131.918,400,132.149,400,132.38,400C132.611,400,132.842,400,133.073,400C133.304,400,133.536,400,133.767,400C133.998,400,134.229,400,134.46,400C134.691,400,134.922,400,135.153,400C135.384,400,135.615,400,135.846,400C136.077,400,136.308,400,136.54,400C136.771,400,137.002,400,137.233,400C137.464,400,137.695,400,137.926,400C138.157,400,138.388,400,138.619,400C138.85,400,139.081,400,139.313,400C139.544,400,139.775,400,140.006,400C140.237,400,140.468,400,140.699,400C140.93,400,141.161,400,141.392,400C141.623,400,141.854,400,142.085,400C142.317,400,142.548,400,142.779,400C143.01,400,143.241,400,143.472,400C143.703,400,143.934,400,144.165,400C144.396,400,144.627,400,144.858,400C145.09,400,145.321,400,145.552,400C145.783,400,146.014,400,146.245,400C146.476,400,146.707,400,146.938,400C147.169,400,147.4,400,147.631,400C147.863,400,148.094,400,148.325,400C148.556,400,148.787,400,149.018,400C149.249,400,149.48,400,149.711,400C149.942,400,150.173,400,150.404,400C150.635,400,150.867,400,151.098,400C151.329,400,151.56,400,151.791,400C152.022,400,152.253,400,152.484,400C152.715,400,152.946,400,153.177,400C153.408,400,153.64,400,153.871,400C154.102,400,154.333,400,154.564,400C154.795,400,155.026,400,155.257,400C155.488,400,155.719,400,155.95,400C156.181,400,156.412,400,156.644,400C156.875,400,157.106,400,157.337,400C157.568,400,157.799,400,158.03,400C158.261,400,158.492,400,158.723,400C158.954,400,159.185,400,159.417,400C159.648,400,159.879,400,160.11,400C160.341,400,160.572,400,160.803,400C161.034,400,161.265,400,161.496,400C161.727,400,161.958,400,162.189,400C162.421,400,162.652,400,162.883,400C163.114,400,163.345,400,163.576,400C163.807,400,164.038,400,164.269,400C164.5,400,164.731,400,164.962,400C165.194,400,165.425,400,165.656,400C165.887,400,166.118,400,166.349,400C166.58,400,166.811,400,167.042,400C167.273,400,167.504,400,167.735,400C167.966,400,168.198,400,168.429,400C168.66,400,168.891,400,169.122,400C169.353,400,169.584,400,169.815,400C170.046,400,170.277,400,170.508,400C170.739,400,170.971,400,171.202,400C171.433,400,171.664,400,171.895,400C172.126,400,172.357,400,172.588,400C172.819,400,173.05,400,173.281,400C173.512,400,173.744,400,173.975,400C174.206,400,174.437,400,174.668,400C174.899,400,175.13,400,175.361,400C175.592,400,175.823,400,176.054,400C176.285,400,176.516,400,176.748,400C176.979,400,177.21,400,177.441,400C177.672,400,177.903,400,178.134,400C178.365,400,178.596,400,178.827,400C179.058,400,179.289,400,179.521,400C179.752,400,179.983,400,180.214,400C180.445,400,180.676,400,180.907,400C181.138,400,181.369,400,181.6,400C181.831,400,182.062,400,182.293,400C182.525,400,182.756,400,182.987,400C183.218,400,183.449,400,183.68,400C183.911,400,184.142,400,184.373,400C184.604,400,184.835,400,185.066,400C185.298,400,185.529,400,185.76,400C185.991,400,186.222,400,186.453,400C186.684,400,186.915,400,187.146,400C187.377,400,187.608,400,187.839,400C188.07,400,188.302,400,188.533,400C188.764,400,188.995,400,189.226,400C189.457,400,189.688,400,189.919,400C190.15,400,190.381,400,190.612,400C190.843,400,191.075,400,191.306,400C191.537,400,191.768,400,191.999,400C192.23,400,192.461,400,192.692,400C192.923,400,193.154,400,193.385,400C193.616,400,193.847,400,194.079,400C194.31,400,194.541,400,194.772,400C195.003,400,195.234,400,195.465,400C195.696,400,195.927,400,196.158,400C196.389,400,196.62,400,196.852,400C197.083,400,197.314,400,197.545,400C197.776,400,198.007,400,198.238,400C198.469,400,198.7,400,198.931,400C199.162,400,199.393,400,199.624,400C199.856,400,200.087,400,200.318,400C200.549,400,200.78,400,201.011,400C201.242,400,201.473,400,201.704,400C201.935,400,202.166,400,202.397,400C202.629,400,202.86,400,203.091,400C203.322,400,203.553,400,203.784,400C204.015,400,204.246,400,204.477,400C204.708,400,204.939,400,205.17,400C205.402,400,205.633,400,205.864,400C206.095,400,206.326,400,206.557,400C206.798,400,207.038,400,207.279,400C207.51,400,207.741,400,207.972,400C208.203,400,208.434,400,208.666,400C208.897,400,209.128,400,209.359,400C209.59,400,209.821,400,210.052,400C210.283,400,210.514,400,210.745,400C210.976,400,211.207,400,211.438,400C211.67,400,211.901,400,212.132,400C212.363,400,212.594,400,212.825,400C213.056,400,213.287,400,213.518,400C213.749,400,213.98,400,214.211,400C214.443,400,214.674,400,214.905,400C215.136,400,215.367,400,215.598,400C215.829,400,216.06,400,216.291,400C216.522,400,216.753,400,216.984,400C217.215,400,217.447,400,217.678,400C217.909,400,218.14,400,218.371,400C218.602,400,218.833,400,219.064,400C219.295,400,219.526,400,219.757,400C219.988,400,220.22,400,220.451,400C220.682,400,220.913,400,221.144,400C221.375,400,221.606,400,221.837,400C222.068,400,222.299,400,222.53,400C222.761,400,222.992,400,223.224,400C223.455,400,223.686,400,223.917,400C224.148,400,224.379,400,224.61,400C224.841,400,225.072,400,225.303,400C225.534,400,225.765,400,225.997,400C226.228,400,226.459,400,226.69,400C226.921,400,227.152,400,227.383,400C227.614,400,227.845,400,228.076,400C228.307,400,228.538,400,228.769,400C229.001,400,229.232,400,229.463,400C229.694,400,229.925,400,230.156,400C230.387,400,230.618,400,230.849,400C231.08,400,231.311,400,231.542,400C231.774,400,232.005,400,232.236,400C232.467,400,232.698,400,232.929,400C233.16,400,233.391,400,233.622,400C233.853,400,234.084,400,234.315,400C234.547,400,234.778,400,235.009,400C235.24,400,235.471,400,235.702,400C235.933,400,236.164,400,236.395,400C236.626,400,236.857,400,237.088,400C237.319,400,237.551,400,237.782,400C238.013,400,238.244,400,238.475,400C238.706,400,238.937,400,239.168,400C239.399,400,239.63,400,239.861,400C240.092,400,240.324,400,240.555,400C240.786,400,241.017,400,241.248,400C241.479,400,241.71,400,241.941,400C242.172,400,242.403,400,242.634,400C242.865,400,243.096,400,243.328,400C243.559,400,243.79,400,244.021,400C244.252,400,244.483,400,244.714,400C244.945,400,245.176,400,245.407,400C245.638,400,245.869,400,246.101,400C246.332,400,246.563,400,246.794,400C247.025,400,247.256,400,247.487,400C247.718,400,247.949,400,248.18,400C248.411,400,248.642,400,248.873,400C249.105,400,249.336,400,249.567,400C249.798,400,250.029,400,250.26,400C250.491,400,250.722,400,250.953,400C251.184,400,251.415,400,251.646,400C251.878,400,252.109,400,252.34,400C252.571,400,252.802,400,253.033,400C253.264,400,253.495,400,253.726,400C253.957,400,254.188,400,254.419,400C254.65,400,254.882,400,255.113,400C255.344,400,255.575,400,255.806,400C256.037,400,256.268,400,256.499,400C256.73,400,256.961,400,257.192,400C257.423,400,257.655,400,257.886,400C258.117,400,258.348,400,258.579,400C258.81,400,259.041,400,259.272,400C259.503,400,259.734,400,259.965,400C260.196,400,260.427,400,260.659,400C260.89,400,261.121,400,261.352,400C261.583,400,261.814,400,262.045,400C262.276,400,262.507,400,262.738,400C262.969,400,263.2,400,263.432,400C263.663,400,263.894,400,264.125,400C264.356,400,264.587,400,264.818,400C265.049,400,265.28,400,265.511,400C265.742,400,265.973,400,266.205,400C266.436,400,266.667,400,266.898,400C267.129,400,267.36,400,267.591,400C267.822,400,268.053,400,268.284,400C268.515,400,268.746,400,268.977,400C269.209,400,269.44,400,269.671,400C269.902,400,270.133,400,270.364,400C270.595,400,270.826,400,271.057,400C271.288,400,271.519,400,271.75,400C271.982,400,272.213,400,272.444,400C272.675,400,272.906,400,273.137,400C273.368,400,273.599,400,273.83,400C274.061,400,274.292,400,274.523,400C274.754,400,274.986,400,275.217,400C275.448,400,275.679,400,275.91,400C276.141,400,276.372,400,276.603,400C276.834,400,277.065,400,277.296,400C277.527,400,277.759,400,277.99,400C278.221,400,278.452,400,278.683,400C278.914,400,279.145,400,279.376,400C279.607,400,279.838,400,280.069,400C280.3,400,280.531,400,280.763,400C280.994,400,281.225,400,281.456,400C281.687,400,281.918,400,282.149,400C282.38,400,282.611,400,282.842,400C283.073,400,283.304,400,283.536,400C283.767,400,283.998,400,284.229,400C284.46,400,284.691,400,284.922,400C285.153,400,285.384,400,285.615,400C285.846,400,286.077,400,286.308,400C286.54,400,286.771,400,287.002,400C287.233,400,287.464,400,287.695,400C287.926,400,288.157,400,288.388,400C288.619,400,288.85,400,289.081,400C289.313,400,289.544,400,289.775,400C290.006,400,290.237,400,290.468,400C290.699,400,290.93,400,291.161,400C291.392,400,291.623,400,291.854,400C292.085,400,292.317,400,292.548,400C292.779,400,293.01,400,293.241,400C293.472,400,293.703,400,293.934,400C294.165,400,294.396,400,294.627,400C294.858,400,295.09,400,295.321,400C295.552,400,295.783,400,296.014,400C296.245,400,296.476,400,296.707,400C296.938,400,297.169,400,297.4,400C297.631,400,297.863,400,298.094,400C298.325,400,298.556,400,298.787,400C299.018,400,299.249,400,299.48,400C299.711,400,299.942,400,300.173,400C300.404,400,300.635,400,300.867,400C301.098,400,301.329,400,301.56,400C301.791,400,302.022,400,302.253,400C302.484,400,302.715,400,302.946,400C303.177,400,303.408,400,303.64,400C303.871,400,304.102,400,304.333,400C304.564,400,304.795,400,305.026,400C305.257,400,305.488,400,305.719,400C305.95,400,306.181,400,306.412,400C306.644,400,306.875,400,307.106,400C307.337,400,307.568,400,307.799,400C308.03,400,308.261,400,308.492,400C308.723,400,308.954,400,309.185,400C309.417,400,309.648,400,309.879,400C310.11,400,310.341,400,310.572,400C310.803,400,311.034,400,311.265,400C311.496,400,311.727,400,311.958,400C312.189,400,312.421,400,312.652,400C312.883,400,313.114,400,313.345,400C313.566,400,313.788,400,314.009,400C314.24,400,314.471,400,314.702,400C314.934,400,315.165,400,315.396,400C315.627,400,315.858,400,316.089,400C316.32,400,316.551,400,316.782,400C317.013,400,317.244,400,317.475,400C317.707,400,317.938,400,318.169,400C318.4,400,318.631,400,318.862,400C319.093,400,319.324,400,319.555,400C319.786,400,320.017,400,320.248,400C320.479,400,320.711,400,320.942,400C321.173,400,321.404,400,321.635,400C321.866,400,322.097,400,322.328,400C322.559,400,322.79,400,323.021,400C323.252,400,323.484,400,323.715,400C323.946,400,324.177,400,324.408,400C324.639,400,324.87,400,325.101,400C325.332,400,325.563,400,325.794,400C326.025,400,326.256,400,326.488,400C326.719,400,326.95,400,327.181,400C327.412,400,327.643,400,327.874,400C328.105,400,328.336,400,328.567,400C328.798,400,329.029,400,329.261,400C329.492,400,329.723,400,329.954,400C330.185,400,330.416,400,330.647,400C330.878,400,331.109,400,331.34,400C331.571,400,331.802,400,332.034,400C332.265,400,332.496,400,332.727,400C332.958,400,333.189,400,333.42,400C333.651,400,333.882,400,334.113,400C334.344,400,334.575,400,334.806,400C335.038,400,335.269,400,335.5,400C335.731,400,335.962,400,336.193,400C336.424,400,336.655,400,336.886,400C337.117,400,337.348,400,337.579,400C337.811,400,338.042,400,338.273,400C338.504,400,338.735,400,338.966,400C339.197,400,339.428,400,339.659,400C339.89,400,340.121,400,340.352,400C340.583,400,340.815,400,341.046,400C341.277,400,341.508,400,341.739,400C341.97,400,342.201,400,342.432,400C342.663,400,342.894,400,343.125,400C343.356,400,343.588,400,343.819,400C344.05,400,344.281,400,344.512,400C344.743,400,344.974,400,345.205,400C345.436,400,345.667,400,345.898,400C346.129,400,346.36,400,346.592,400C346.823,400,347.054,400,347.285,400C347.516,400,347.747,400,347.978,400C348.209,400,348.44,400,348.671,400C348.902,400,349.133,400,349.365,400C349.596,400,349.827,400,350.058,400C350.289,400,350.52,400,350.751,400C350.982,400,351.213,400,351.444,400C351.675,400,351.906,400,352.137,400C352.369,400,352.6,400,352.831,400C353.062,400,353.293,400,353.524,400C353.755,400,353.986,400,354.217,400C354.448,400,354.679,400,354.91,400C355.142,400,355.373,400,355.604,400C355.835,400,356.066,400,356.297,400C356.528,400,356.759,400,356.99,400C357.221,400,357.452,400,357.683,400C357.915,400,358.146,400,358.377,400C358.608,400,358.839,400,359.07,400C359.301,400,359.532,400,359.763,400C359.994,400,360.225,400,360.456,400C360.687,400,360.919,400,361.15,400C361.381,400,361.612,400,361.843,400C362.074,400,362.305,400,362.536,400C362.767,400,362.998,400,363.229,400C363.46,400,363.692,400,363.923,400C364.154,400,364.385,400,364.616,400C364.847,400,365.078,400,365.309,400C365.54,400,365.771,400,366.002,400C366.233,400,366.464,400,366.696,400C366.927,400,367.158,400,367.389,400C367.62,400,367.851,400,368.082,400C368.313,400,368.544,400,368.775,400C369.006,400,369.237,400,369.469,400C369.7,400,369.931,400,370.162,400C370.393,400,370.624,400,370.855,400C371.086,400,371.317,400,371.548,400C371.779,400,372.01,400,372.241,400C372.473,400,372.704,400,372.935,400C373.166,400,373.397,400,373.628,400C373.859,400,374.09,400,374.321,400C374.552,400,374.783,400,375.014,400C375.246,400,375.477,400,375.708,400C375.939,400,376.17,400,376.401,400C376.632,400,376.863,400,377.094,400C377.325,400,377.556,400,377.787,400C378.018,400,378.25,400,378.481,400C378.712,400,378.943,400,379.174,400C379.405,400,379.636,400,379.867,400C380.098,400,380.329,400,380.56,400C380.791,400,381.023,400,381.254,400C381.485,400,381.716,400,381.947,400C382.178,400,382.409,400,382.64,400C382.871,400,383.102,400,383.333,400C383.564,400,383.795,400,384.027,400C384.258,400,384.489,400,384.72,400C384.951,400,385.182,400,385.413,400C385.644,400,385.875,400,386.106,400C386.337,400,386.568,400,386.8,400C387.031,400,387.262,400,387.493,400C387.724,400,387.955,400,388.186,400C388.417,400,388.648,400,388.879,400C389.11,400,389.341,400,389.573,400C389.804,400,390.035,400,390.266,400C390.497,400,390.728,400,390.959,400C391.19,400,391.421,400,391.652,400C391.883,400,392.114,400,392.345,400C392.577,400,392.808,400,393.039,400C393.27,400,393.501,400,393.732,400C393.963,400,394.194,400,394.425,400C394.656,400,394.887,400,395.118,400C395.35,400,395.581,400,395.812,400C396.043,400,396.274,400,396.505,400C396.736,400,396.967,400,397.198,400C397.429,400,397.66,400,397.891,400C398.122,400,398.354,400,398.585,400C398.816,400,399.047,400,399.278,400C399.509,400,399.74,400,399.971,400C400.202,400,400.433,400,400.664,400C400.895,400,401.127,400,401.358,400C401.589,400,401.82,400,402.051,400C402.282,400,402.513,400,402.744,400C402.975,400,403.206,400,403.437,400C403.668,400,403.899,400,404.131,400C404.362,400,404.593,400,404.824,400C405.055,400,405.286,400,405.517,400C405.748,400,405.979,400,406.21,400C406.441,400,406.672,400,406.904,400C407.135,400,407.366,400,407.597,400C407.828,400,408.059,157.778,408.29,157.778C408.521,157.778,408.752,157.778,408.983,157.778C409.214,157.778,409.445,157.778,409.676,157.778C409.908,157.778,410.139,157.778,410.37,157.778C410.601,157.778,410.832,157.778,411.063,157.778C411.294,157.778,411.525,157.778,411.756,157.778C411.987,157.778,412.218,157.778,412.449,157.778C412.681,157.778,412.912,157.778,413.143,157.778C413.374,157.778,413.605,157.778,413.836,157.778C414.067,157.778,414.298,157.778,414.529,157.778C414.76,157.778,414.991,157.778,415.222,157.778C415.453,157.778,415.685,157.778,415.916,157.778C416.147,157.778,416.378,157.778,416.609,157.778C416.84,157.778,417.071,157.778,417.302,157.778C417.533,157.778,417.764,122.756,417.995,122.756C418.226,122.756,418.458,122.756,418.689,122.756C418.92,122.756,419.151,122.756,419.382,122.756C419.613,122.756,419.844,122.756,420.075,122.756C420.306,122.756,420.537,122.756,420.768,122.756C420.999,122.756,421.231,122.756,421.462,122.756C421.693,122.756,421.924,122.756,422.155,122.756C422.386,122.756,422.617,122.756,422.848,122.756C423.079,122.756,423.31,122.756,423.541,122.756C423.772,122.756,424.003,122.756,424.235,122.756C424.466,122.756,424.697,122.756,424.928,122.756C425.159,122.756,425.39,97.733,425.621,97.733C425.852,97.733,426.083,97.733,426.314,97.733C426.545,97.733,426.776,97.733,427.008,97.733C427.239,97.733,427.47,97.733,427.701,97.733C427.932,97.733,428.163,97.733,428.394,97.733C428.625,97.733,428.856,97.733,429.087,97.733C429.318,97.733,429.549,97.733,429.78,97.733C430.012,97.733,430.243,97.733,430.474,97.733C430.705,97.733,430.936,97.733,431.167,97.733C431.398,97.733,431.629,84.711,431.86,84.711C432.091,84.711,432.322,84.711,432.553,84.711C432.785,84.711,433.016,84.711,433.247,84.711C433.478,84.711,433.709,81.378,433.94,81.378C434.171,81.378,434.402,81.378,434.633,81.378C434.864,81.378,435.095,81.378,435.326,81.378C435.557,81.378,435.789,81.378,436.02,81.378C436.251,81.378,436.482,81.378,436.713,81.378C436.944,81.378,437.175,81.378,437.406,81.378C437.637,81.378,437.868,81.378,438.099,81.378C438.33,81.378,438.562,81.378,438.793,81.378C439.024,81.378,439.255,81.378,439.486,81.378C439.717,81.378,439.948,81.378,440.179,81.378C440.41,81.378,440.641,73.378,440.872,73.378C441.103,73.378,441.334,73.378,441.566,73.378C441.797,73.378,442.028,73.378,442.259,73.378C442.49,73.378,442.721,73.378,442.952,73.378C443.183,73.378,443.414,73.378,443.645,73.378C443.876,73.378,444.107,73.378,444.339,73.378C444.57,73.378,444.801,73.378,445.032,73.378C445.263,73.378,445.494,73.378,445.725,73.378C445.956,73.378,446.187,73.378,446.418,73.378C446.649,73.378,446.88,73.378,447.111,73.378C447.343,73.378,447.574,73.378,447.805,73.378C448.036,73.378,448.267,73.378,448.498,73.378C448.729,73.378,448.96,73.378,449.191,73.378C449.422,73.378,449.653,73.378,449.884,73.378C450.116,73.378,450.347,73.378,450.578,73.378C450.809,73.378,451.04,73.378,451.271,73.378C451.502,73.378,451.733,73.378,451.964,73.378C452.195,73.378,452.426,73.378,452.657,73.378C452.889,73.378,453.12,73.378,453.351,73.378C453.582,73.378,453.813,73.378,454.044,73.378C454.275,73.378,454.506,73.378,454.737,73.378C454.968,73.378,455.199,73.378,455.43,73.378C455.661,73.378,455.893,73.378,456.124,73.378C456.355,73.378,456.586,73.378,456.817,73.378C457.048,73.378,457.279,73.378,457.51,73.378C457.741,73.378,457.972,67.244,458.203,67.244C458.434,67.244,458.666,67.244,458.897,67.244C459.128,67.244,459.359,67.244,459.59,67.244C459.821,67.244,460.052,67.244,460.283,67.244C460.514,67.244,460.745,67.244,460.976,67.244C461.207,67.244,461.438,67.244,461.67,67.244C461.901,67.244,462.132,66.356,462.363,66.356C462.594,66.356,462.825,66.356,463.056,66.356C463.287,66.356,463.518,66.356,463.749,66.356C463.99,66.356,464.231,66.356,464.471,66.356C464.702,66.356,464.934,66.356,465.165,66.356C465.396,66.356,465.627,66.356,465.858,66.356C466.089,66.356,466.32,66.356,466.551,66.356C466.782,66.356,467.013,65.733,467.244,65.733C467.475,65.733,467.707,65.733,467.938,65.733C468.169,65.733,468.4,65.733,468.631,65.733C468.862,65.733,469.093,65.733,469.324,65.733C469.555,65.733,469.786,65.733,470.017,65.733C470.248,65.733,470.479,65.733,470.711,65.733C470.942,65.733,471.173,65.733,471.404,65.733C471.635,65.733,471.866,65.289,472.097,65.289C472.328,65.289,472.559,65.289,472.79,65.289C473.021,65.289,473.252,65.289,473.484,65.289C473.715,65.289,473.946,65.289,474.177,65.289C474.408,65.289,474.639,65.289,474.87,65.289C475.101,65.289,475.332,65.289,475.563,65.289C475.794,65.289,476.025,65.289,476.256,65.289C476.488,65.289,476.719,64.533,476.95,64.533C477.181,64.533,477.412,64.533,477.643,64.533C477.874,64.533,478.105,64.533,478.336,64.533C478.567,64.533,478.798,64.533,479.029,64.533C479.261,64.533,479.492,64.533,479.723,64.533C479.954,64.533,480.185,64.533,480.416,64.533C480.647,64.533,480.878,64.533,481.109,64.533C481.34,64.533,481.571,64.533,481.802,64.533C482.034,64.533,482.265,64.533,482.496,64.533C482.727,64.533,482.958,64.533,483.189,64.533C483.42,64.533,483.651,53.867,483.882,53.867C484.113,53.867,484.344,53.867,484.575,53.867C484.806,53.867,485.038,53.867,485.269,53.867C485.5,53.867,485.731,53.867,485.962,53.867C486.193,53.867,486.424,49.333,486.655,49.333C486.886,49.333,487.117,49.333,487.348,49.333C487.579,49.333,487.811,49.333,488.042,49.333C488.273,49.333,488.504,49.333,488.735,49.333C488.966,49.333,489.197,49.333,489.428,49.333C489.659,49.333,489.89,49.333,490.121,49.333C490.352,49.333,490.583,49.333,490.815,49.333C491.046,49.333,491.277,37.644,491.508,37.644C491.739,37.644,491.97,37.644,492.201,37.644C492.432,37.644,492.663,37.644,492.894,37.644C493.125,37.644,493.356,37.644,493.588,37.644C493.819,37.644,494.05,37.644,494.281,37.644C494.512,37.644,494.743,37.644,494.974,37.644C495.205,37.644,495.436,37.644,495.667,37.644C495.898,37.644,496.129,30.222,496.36,30.222C496.592,30.222,496.823,30.222,497.054,30.222C497.285,30.222,497.516,28,497.747,28C497.978,28,498.209,28,498.44,28C498.671,28,498.902,28,499.133,28C499.365,28,499.596,28,499.827,28C500.058,28,500.289,28,500.52,28C500.751,28,500.982,28,501.213,28C501.444,28,501.675,24.933,501.906,24.933C502.137,24.933,502.369,24.933,502.6,24.933C502.831,24.933,503.062,24.933,503.293,24.933C503.524,24.933,503.755,23.644,503.986,23.644C504.217,23.644,504.448,23.644,504.679,23.644C504.91,23.644,505.142,23.644,505.373,23.644C505.604,23.644,505.835,23.644,506.066,23.644C506.297,23.644,506.528,23.644,506.759,23.644C506.99,23.644,507.221,23.644,507.452,23.644C507.683,23.644,507.915,23.644,508.146,23.644C508.377,23.644,508.608,23.644,508.839,23.644C509.07,23.644,509.301,23.644,509.532,23.644C509.763,23.644,509.994,22.348,510.225,21.911C510.456,21.474,510.687,21.022,510.919,21.022C511.15,21.022,511.381,21.022,511.612,21.022C511.843,21.022,512.074,21.022,512.305,21.022C512.536,21.022,512.767,21.022,512.998,21.022C513.229,21.022,513.46,21.022,513.692,21.022C513.923,21.022,514.154,21.022,514.385,21.022C514.616,21.022,514.847,21.022,515.078,21.022C515.309,21.022,515.54,19.556,515.771,19.556C516.002,19.556,516.233,19.556,516.464,19.556C516.696,19.556,516.927,19.556,517.158,19.556C517.389,19.556,517.62,19.556,517.851,19.556C518.082,19.556,518.313,19.556,518.544,19.556C518.775,19.556,519.006,19.556,519.237,19.556C519.469,19.556,519.7,19.556,519.931,19.556C520.162,19.556,520.393,18.356,520.624,18.356C520.855,18.356,521.086,18.356,521.317,18.356C521.548,18.356,521.779,18.356,522.01,18.356C522.241,18.356,522.473,18.356,522.704,18.356C522.935,18.356,523.166,18.356,523.397,18.356C523.628,18.356,523.859,18.356,524.09,18.356C524.321,18.356,524.552,18.356,524.783,18.356C525.014,18.356,525.246,17.422,525.477,17.422C525.708,17.422,525.939,17.422,526.17,17.422C526.401,17.422,526.632,17.422,526.863,17.422C527.094,17.422,527.325,17.422,527.556,17.422C527.787,17.422,528.018,17.422,528.25,17.422C528.481,17.422,528.712,17.422,528.943,17.422C529.174,17.422,529.405,17.422,529.636,17.422C529.867,17.422,530.098,17.422,530.329,17.422C530.56,17.422,530.791,17.422,531.023,17.422C531.254,17.422,531.485,17.422,531.716,17.422C531.947,17.422,532.178,17.111,532.409,17.111C532.64,17.111,532.871,17.111,533.102,17.111C533.333,17.111,533.564,17.111,533.795,17.111C534.027,17.111,534.258,17.111,534.489,17.111C534.72,17.111,534.951,17.111,535.182,17.111C535.413,17.111,535.644,17.111,535.875,17.111C536.106,17.111,536.337,17.111,536.568,17.111C536.8,17.111,537.031,17.111,537.262,17.111C537.493,17.111,537.724,17.111,537.955,17.111C538.186,17.111,538.417,17.111,538.648,17.111C538.879,17.111,539.11,17.111,539.341,17.111C539.573,17.111,539.804,15.822,540.035,15.822C540.266,15.822,540.497,15.822,540.728,15.822C540.959,15.822,541.19,15.822,541.421,15.822C541.652,15.822,541.883,15.822,542.114,15.822C542.345,15.822,542.577,15.822,542.808,15.822C543.039,15.822,543.27,15.822,543.501,15.822C543.732,15.822,543.963,15.822,544.194,15.822C544.425,15.822,544.656,15.2,544.887,15.2C545.118,15.2,545.35,15.2,545.581,15.2C545.812,15.2,546.043,15.2,546.274,15.2C546.505,15.2,546.736,15.2,546.967,15.2C547.198,15.2,547.429,15.2,547.66,15.2C547.891,15.2,548.122,15.2,548.354,15.2C548.585,15.2,548.816,15.2,549.047,15.2C549.278,15.2,549.509,15.2,549.74,15.2C549.971,15.2,550.202,15.2,550.433,15.2C550.664,15.2,550.895,15.2,551.127,15.2C551.358,15.2,551.589,15.2,551.82,15.2C552.051,15.2,552.282,15.2,552.513,15.2C552.744,15.2,552.975,15.2,553.206,15.2C553.437,15.2,553.668,15.2,553.899,15.2C554.131,15.2,554.362,15.2,554.593,15.2C554.824,15.2,555.055,15.2,555.286,15.2C555.517,15.2,555.748,15.2,555.979,15.2C556.21,15.2,556.441,13.733,556.672,13.733C556.904,13.733,557.135,13.733,557.366,13.733C557.597,13.733,557.828,13.733,558.059,13.733C558.29,13.733,558.521,13.667,558.752,13.644C558.983,13.622,559.214,13.6,559.445,13.6C559.676,13.6,559.908,13.6,560.139,13.6C560.37,13.6,560.601,13.6,560.832,13.6C561.063,13.6,561.294,13.378,561.525,13.378C561.756,13.378,561.987,13.378,562.218,13.378C562.449,13.378,562.681,13.378,562.912,13.378C563.143,13.378,563.374,13.244,563.605,13.244C563.836,13.244,564.067,13.244,564.298,13.244C564.529,13.244,564.76,13.244,564.991,13.244C565.222,13.244,565.453,13.244,565.685,13.244C565.906,13.244,566.127,13.244,566.349,13.244C566.58,13.244,566.811,13.244,567.042,13.244C567.273,13.244,567.504,13.244,567.735,13.244C567.966,13.244,568.198,12.8,568.429,12.8C568.66,12.8,568.891,12.8,569.122,12.8C569.353,12.8,569.584,12.8,569.815,12.8C570.046,12.8,570.277,12.8,570.508,12.8C570.739,12.8,570.971,12.8,571.202,12.8C571.433,12.8,571.664,12.489,571.895,12.489C572.126,12.489,572.357,12.489,572.588,12.489C572.819,12.489,573.05,12.489,573.281,12.489C573.512,12.489,573.744,12.489,573.975,12.489C574.206,12.489,574.437,12.489,574.668,12.489C574.899,12.489,575.13,12.489,575.361,12.489C575.592,12.489,575.823,11.956,576.054,11.956C576.285,11.956,576.516,11.956,576.748,11.956C576.979,11.956,577.21,11.956,577.441,11.956C577.672,11.956,577.903,11.956,578.134,11.956C578.365,11.956,578.596,11.956,578.827,11.956C579.058,11.956,579.289,11.956,579.521,11.956C579.752,11.956,579.983,11.956,580.214,11.956C580.445,11.956,580.676,11.378,580.907,11.378C581.138,11.378,581.369,11.378,581.6,11.378C581.831,11.378,582.062,11.378,582.293,11.378C582.525,11.378,582.756,11.378,582.987,11.378C583.218,11.378,583.449,11.378,583.68,11.378C583.911,11.378,584.142,11.378,584.373,11.378C584.604,11.378,584.835,11.378,585.066,11.378C585.298,11.378,585.529,11.378,585.76,11.378C585.991,11.378,586.222,11.378,586.453,11.378C586.684,11.378,586.915,10.637,587.146,10.578C587.377,10.519,587.608,10.489,587.839,10.489C588.07,10.489,588.302,10.489,588.533,10.489C588.764,10.489,588.995,10.489,589.226,10.489C589.457,10.489,589.688,10.489,589.919,10.489C590.15,10.489,590.381,10.489,590.612,10.489C590.843,10.489,591.075,10.489,591.306,10.489C591.537,10.489,591.768,10.489,591.999,10.489C592.23,10.489,592.461,10.044,592.692,10.044C592.923,10.044,593.154,10.044,593.385,10.044C593.616,10.044,593.847,10.044,594.079,10.044C594.31,10.044,594.541,10.044,594.772,10.044C595.003,10.044,595.234,10.044,595.465,10.044C595.696,10.044,595.927,10.044,596.158,10.044C596.389,10.044,596.62,10.044,596.852,10.044C597.083,10.044,597.314,9.556,597.545,9.556C597.776,9.556,598.007,9.556,598.238,9.556C598.469,9.556,598.7,9.556,598.931,9.556C599.162,9.556,599.393,9.556,599.624,9.556C599.856,9.556,600.087,9.556,600.318,9.556C600.549,9.556,600.78,9.556,601.011,9.556C601.242,9.556,601.473,9.556,601.704,9.556C601.935,9.556,602.166,9.556,602.397,9.556C602.629,9.556,602.86,9.556,603.091,9.556C603.322,9.556,603.553,9.556,603.784,9.556C604.015,9.556,604.246,8.844,604.477,8.844C604.708,8.844,604.939,8.844,605.17,8.844C605.402,8.844,605.633,8.844,605.864,8.844C606.095,8.844,606.326,8.844,606.557,8.844C606.788,8.844,607.019,8.578,607.25,8.578C607.481,8.578,607.712,8.578,607.943,8.578C608.174,8.578,608.406,8.578,608.637,8.578C608.868,8.578,609.099,8.578,609.33,8.578C609.561,8.578,609.792,8.578,610.023,8.578C610.254,8.578,610.485,8.578,610.716,8.578C610.947,8.578,611.179,8.222,611.41,8.222C611.641,8.222,611.872,8.222,612.103,8.222C612.334,8.222,612.565,8.222,612.796,8.222C613.027,8.222,613.258,8.133,613.489,8.133C613.72,8.133,613.951,8.133,614.183,8.133C614.414,8.133,614.645,8.133,614.876,8.133C615.107,8.133,615.338,8.133,615.569,8.133C615.8,8.133,616.031,8.133,616.262,8.133C616.493,8.133,616.724,8.133,616.956,8.133C617.187,8.133,617.418,8.133,617.649,8.133C617.88,8.133,618.111,8.133,618.342,8.133C618.573,8.133,618.804,8.133,619.035,8.133C619.266,8.133,619.497,8.133,619.728,8.133C619.96,8.133,620.191,8.133,620.422,8.133C620.653,8.133,620.884,8.133,621.115,8.133C621.346,8.133,621.577,7.511,621.808,7.511C622.039,7.511,622.27,7.511,622.501,7.511C622.733,7.511,622.964,7.511,623.195,7.511C623.426,7.511,623.657,7.511,623.888,7.511C624.119,7.511,624.35,7.511,624.581,7.511C624.812,7.511,625.043,7.511,625.274,7.511C625.505,7.511,625.737,7.511,625.968,7.511C626.199,7.511,626.43,7.244,626.661,7.244C626.892,7.244,627.123,7.244,627.354,7.244C627.585,7.244,627.816,7.244,628.047,7.244C628.278,7.244,628.51,7.244,628.741,7.244C628.972,7.244,629.203,7.111,629.434,7.111C629.665,7.111,629.896,7.111,630.127,7.111C630.358,7.111,630.589,7.111,630.82,7.111C631.051,7.111,631.282,7.111,631.514,7.111C631.745,7.111,631.976,7.111,632.207,7.111C632.438,7.111,632.669,7.111,632.9,7.111C633.131,7.111,633.362,7.111,633.593,7.111C633.824,7.111,634.055,7.111,634.287,7.111C634.518,7.111,634.749,7.111,634.98,7.111C635.211,7.111,635.442,7.111,635.673,7.111C635.904,7.111,636.135,6.667,636.366,6.667C636.597,6.667,636.828,6.667,637.06,6.667C637.291,6.667,637.522,6.667,637.753,6.667C637.984,6.667,638.215,6.667,638.446,6.667C638.677,6.667,638.908,6.667,639.139,6.667C639.37,6.667,639.601,6.667,639.832,6.667C640.064,6.667,640.295,6.667,640.526,6.667C640.757,6.667,640.988,6.667,641.219,6.667C641.45,6.667,641.681,6.667,641.912,6.667C642.143,6.667,642.374,6.667,642.605,6.667C642.837,6.667,643.068,6.667,643.299,6.667C643.53,6.667,643.761,6.667,643.992,6.667C644.223,6.667,644.454,6.667,644.685,6.667C644.916,6.667,645.147,5.911,645.378,5.911C645.609,5.911,645.841,5.911,646.072,5.911C646.303,5.911,646.534,5.733,646.765,5.733C646.996,5.733,647.227,5.733,647.458,5.733C647.689,5.733,647.92,5.733,648.151,5.733C648.382,5.733,648.614,5.733,648.845,5.733C649.076,5.733,649.307,5.733,649.538,5.733C649.769,5.733,650,5.733,650.231,5.733C650.462,5.733,650.693,5.733,650.924,5.733C651.155,5.733,651.386,5.733,651.618,5.733C651.849,5.733,652.08,5.733,652.311,5.733C652.542,5.733,652.773,5.733,653.004,5.733C653.235,5.733,653.466,5.733,653.697,5.733C653.928,5.733,654.159,5.733,654.391,5.733C654.622,5.733,654.853,5.733,655.084,5.733C655.315,5.733,655.546,5.733,655.777,5.733C656.008,5.733,656.239,5.733,656.47,5.733C656.701,5.733,656.932,5.733,657.163,5.733C657.395,5.733,657.626,5.733,657.857,5.733C658.088,5.733,658.319,5.733,658.55,5.733C658.781,5.733,659.012,4.667,659.243,4.667C659.474,4.667,659.705,4.667,659.936,4.667C660.168,4.667,660.399,4.667,660.63,4.667C660.861,4.667,661.092,4.667,661.323,4.667C661.554,4.667,661.785,4.667,662.016,4.667C662.247,4.667,662.478,4.667,662.709,4.667C662.94,4.667,663.172,4.667,663.403,4.667C663.634,4.667,663.865,4.667,664.096,4.667C664.327,4.667,664.558,4.667,664.789,4.667C665.02,4.667,665.251,4.667,665.482,4.667C665.713,4.667,665.945,4.667,666.176,4.667C666.407,4.667,666.638,4.667,666.869,4.667C667.1,4.667,667.331,4.667,667.562,4.667C667.793,4.667,668.024,4.667,668.255,4.667C668.486,4.667,668.718,4.667,668.949,4.667C669.18,4.667,669.411,4.667,669.642,4.667C669.873,4.667,670.104,4.667,670.335,4.667C670.566,4.667,670.797,4.667,671.028,4.667C671.259,4.667,671.49,4.667,671.722,4.667C671.953,4.667,672.184,4.667,672.415,4.667C672.646,4.667,672.877,4.667,673.108,4.667C673.339,4.667,673.57,4.667,673.801,4.667C674.032,4.667,674.263,4.667,674.495,4.667C674.726,4.667,674.957,4.667,675.188,4.667C675.419,4.667,675.65,4.667,675.881,4.667C676.112,4.667,676.343,4.667,676.574,4.667C676.805,4.667,677.036,4.667,677.267,4.667C677.499,4.667,677.73,4.667,677.961,4.667C678.192,4.667,678.423,4.667,678.654,4.667C678.885,4.667,679.116,3.956,679.347,3.956C679.578,3.956,679.809,3.956,680.04,3.956C680.272,3.956,680.503,3.956,680.734,3.956C680.965,3.956,681.196,3.956,681.427,3.956C681.658,3.956,681.889,3.956,682.12,3.956C682.351,3.956,682.582,3.956,682.813,3.956C683.044,3.956,683.276,3.956,683.507,3.956C683.738,3.956,683.969,3.956,684.2,3.956C684.431,3.956,684.662,3.956,684.893,3.956C685.124,3.956,685.355,3.956,685.586,3.956C685.817,3.956,686.049,3.956,686.28,3.956C686.511,3.956,686.742,3.956,686.973,3.956C687.204,3.956,687.435,3.956,687.666,3.956C687.897,3.956,688.128,3.956,688.359,3.956C688.59,3.956,688.821,3.956,689.053,3.956C689.284,3.956,689.515,3.956,689.746,3.956C689.977,3.956,690.208,3.956,690.439,3.956C690.67,3.956,690.901,3.956,691.132,3.956C691.363,3.956,691.594,3.956,691.826,3.956C692.057,3.956,692.288,3.956,692.519,3.956C692.75,3.956,692.981,3.956,693.212,3.956C693.443,3.956,693.674,3.689,693.905,3.689C694.136,3.689,694.367,3.689,694.598,3.689C694.83,3.689,695.061,3.689,695.292,3.689C695.523,3.689,695.754,3.689,695.985,3.689C696.216,3.689,696.447,3.689,696.678,3.689C696.909,3.689,697.14,3.689,697.371,3.689C697.603,3.689,697.834,3.689,698.065,3.689C698.296,3.689,698.527,3.689,698.758,3.689C698.989,3.689,699.22,3.689,699.451,3.689C699.682,3.689,699.913,3.689,700.144,3.689C700.376,3.689,700.607,3.689,700.838,3.689C701.069,3.689,701.3,3.689,701.531,3.689C701.762,3.689,701.993,3.689,702.224,3.689C702.455,3.689,702.686,3.689,702.917,3.689C703.148,3.689,703.38,3.6,703.611,3.6C703.842,3.6,704.073,3.6,704.304,3.6C704.535,3.6,704.766,3.6,704.997,3.6C705.228,3.6,705.459,3.6,705.69,3.6C705.921,3.6,706.153,3.6,706.384,3.6C706.615,3.6,706.846,3.6,707.077,3.6C707.308,3.6,707.539,3.6,707.77,3.6C708.001,3.6,708.232,3.6,708.463,3.6C708.694,3.6,708.925,3.6,709.157,3.6C709.388,3.6,709.619,3.6,709.85,3.6C710.081,3.6,710.312,3.6,710.543,3.6C710.774,3.6,711.005,3.6,711.236,3.6C711.467,3.6,711.698,3.6,711.93,3.6C712.161,3.6,712.392,3.6,712.623,3.6C712.854,3.6,713.085,3.6,713.316,3.6C713.547,3.6,713.778,3.6,714.009,3.6C714.24,3.6,714.471,3.6,714.702,3.6C714.934,3.6,715.165,3.6,715.396,3.6C715.627,3.6,715.858,3.6,716.089,3.6C716.33,3.6,716.57,3.6,716.811,3.6C717.042,3.6,717.273,3.6,717.504,3.6C717.735,3.6,717.966,3.6,718.198,3.6C718.429,3.6,718.66,3.6,718.891,3.6C719.122,3.6,719.353,3.467,719.584,3.467C719.815,3.467,720.046,3.467,720.277,3.467C720.508,3.467,720.739,3.467,720.971,3.467C721.202,3.467,721.433,3.467,721.664,3.467C721.895,3.467,722.126,3.467,722.357,3.467C722.588,3.467,722.819,3.467,723.05,3.467C723.281,3.467,723.512,3.467,723.744,3.467C723.975,3.467,724.206,3.467,724.437,3.467C724.668,3.467,724.899,3.467,725.13,3.467C725.361,3.467,725.592,3.467,725.823,3.467C726.054,3.467,726.285,3.467,726.516,3.467C726.748,3.467,726.979,3.467,727.21,3.467C727.441,3.467,727.672,3.467,727.903,3.467C728.134,3.467,728.365,3.467,728.596,3.467C728.827,3.467,729.058,3.467,729.289,3.467C729.521,3.467,729.752,3.467,729.983,3.467C730.214,3.467,730.445,3.467,730.676,3.467C730.907,3.467,731.138,3.467,731.369,3.467C731.6,3.467,731.831,3.467,732.062,3.467C732.293,3.467,732.525,3.467,732.756,3.467C732.987,3.467,733.218,3.467,733.449,3.467C733.68,3.467,733.911,3.467,734.142,3.467C734.373,3.467,734.604,3.467,734.835,3.467C735.066,3.467,735.298,3.467,735.529,3.467C735.76,3.467,735.991,3.244,736.222,3.244C736.453,3.244,736.684,3.244,736.915,3.244C737.146,3.244,737.377,3.244,737.608,3.244C737.839,3.244,738.07,3.244,738.302,3.244C738.533,3.244,738.764,3.244,738.995,3.244C739.226,3.244,739.457,3.244,739.688,3.244C739.919,3.244,740.15,3.244,740.381,3.244C740.612,3.244,740.843,3.244,741.075,3.244C741.306,3.244,741.537,3.244,741.768,3.244C741.999,3.244,742.23,3.244,742.461,3.244C742.692,3.244,742.923,3.244,743.154,3.244C743.385,3.244,743.616,3.244,743.847,3.244C744.079,3.244,744.31,3.244,744.541,3.244C744.772,3.244,745.003,3.244,745.234,3.244C745.465,3.244,745.696,3.244,745.927,3.244C746.158,3.244,746.389,2.889,746.62,2.889C746.852,2.889,747.083,2.889,747.314,2.889C747.545,2.889,747.776,2.889,748.007,2.889C748.238,2.889,748.469,2.889,748.7,2.889C748.931,2.889,749.162,2.889,749.393,2.889C749.624,2.889,749.856,2.889,750.087,2.889C750.318,2.889,750.549,2.889,750.78,2.889C751.011,2.889,751.242,2.889,751.473,2.889C751.704,2.889,751.935,2.889,752.166,2.889C752.397,2.889,752.629,2.889,752.86,2.889C753.091,2.889,753.322,2.889,753.553,2.889C753.784,2.889,754.015,2.889,754.246,2.889C754.477,2.889,754.708,2.889,754.939,2.889C755.17,2.889,755.402,2.889,755.633,2.889C755.864,2.889,756.095,2.889,756.326,2.889C756.557,2.889,756.788,2.889,757.019,2.889C757.25,2.889,757.481,2.889,757.712,2.889C757.943,2.889,758.174,2.889,758.406,2.889C758.637,2.889,758.868,2.889,759.099,2.889C759.33,2.889,759.561,2.889,759.792,2.889C760.023,2.889,760.254,2.889,760.485,2.889C760.716,2.889,760.947,2.889,761.179,2.889C761.41,2.889,761.641,2.889,761.872,2.889C762.103,2.889,762.334,2.889,762.565,2.889C762.796,2.889,763.027,2.889,763.258,2.889C763.489,2.889,763.72,2.889,763.951,2.889C764.183,2.889,764.414,2.889,764.645,2.889C764.876,2.889,765.107,2.889,765.338,2.889C765.569,2.889,765.8,2.889,766.031,2.889C766.262,2.889,766.493,2.889,766.724,2.889C766.956,2.889,767.187,2.178,767.418,2.178C767.649,2.178,767.88,2.178,768.111,2.178C768.342,2.178,768.573,2.178,768.804,2.178C769.035,2.178,769.266,2.178,769.497,2.178C769.728,2.178,769.96,2.178,770.191,2.178C770.422,2.178,770.653,2.178,770.884,2.178C771.115,2.178,771.346,2.178,771.577,2.178C771.808,2.178,772.039,2.133,772.27,2.133C772.501,2.133,772.733,2.133,772.964,2.133C773.195,2.133,773.426,2.133,773.657,2.133C773.888,2.133,774.119,2.133,774.35,2.133C774.581,2.133,774.812,2.133,775.043,2.133C775.274,2.133,775.505,2.133,775.737,2.133C775.968,2.133,776.199,2.133,776.43,2.133C776.661,2.133,776.892,2.089,777.123,2.089C777.354,2.089,777.585,2.089,777.816,2.089C778.047,2.089,778.278,2.089,778.51,2.089C778.741,2.089,778.972,2.089,779.203,2.089C779.434,2.089,779.665,2.089,779.896,2.089C780.127,2.089,780.358,2.089,780.589,2.089C780.82,2.089,781.051,2.089,781.282,2.089C781.514,2.089,781.745,2.089,781.976,2.089C782.207,2.089,782.438,2.089,782.669,2.089C782.9,2.089,783.131,2.089,783.362,2.089C783.593,2.089,783.824,2.089,784.055,2.089C784.287,2.089,784.518,2.089,784.749,2.089C784.98,2.089,785.211,2.089,785.442,2.089C785.673,2.089,785.904,2.089,786.135,2.089C786.366,2.089,786.597,2.044,786.828,2.044C787.06,2.044,787.291,2.044,787.522,2.044C787.753,2.044,787.984,2.044,788.215,2.044C788.446,2.044,788.677,2.044,788.908,2.044C789.139,2.044,789.37,2.044,789.601,2.044C789.832,2.044,790.064,2.044,790.295,2.044C790.526,2.044,790.757,2.044,790.988,2.044C791.219,2.044,791.45,2.044,791.681,2.044C791.912,2.044,792.143,2.044,792.374,2.044C792.605,2.044,792.837,2.044,793.068,2.044C793.299,2.044,793.53,2.044,793.761,2.044C793.992,2.044,794.223,2.044,794.454,2.044C794.685,2.044,794.916,2.044,795.147,2.044C795.378,2.044,795.609,2.044,795.841,2.044C796.072,2.044,796.303,2.044,796.534,2.044C796.765,2.044,796.996,2.044,797.227,2.044C797.458,2.044,797.689,2.044,797.92,2.044C798.151,2.044,798.382,2.044,798.614,2.044C798.845,2.044,799.076,2.044,799.307,2.044C799.538,2.044,799.769,2.044,800,2.044" stroke="#7eaad5" stroke-width="2"/></g></g><path class="foreground" aria-hidden="true" d="" display="none"/></g></g></g><defs><clipPath id="clip1"><rect x="0" y="0" width="800" height="400"/></clipPath></defs></svg>